<svg xmlns="http://www.w3.org/2000/svg" viewBox="0.666 0.341 246.821 98.3">
  <defs>
    <linearGradient id="a" x1="125.897" x2="125.897" y1="3.566" y2="97.2" gradientTransform="matrix(1 0 .00378 1.00988 -.367735 -.960142)" gradientUnits="userSpaceOnUse">
      <stop offset="0" stop-color="#76a6bd"/>
      <stop offset="1" stop-color="#486a7b"/>
    </linearGradient>
  </defs>
  <path fill="url(#a)" d="M123.438 5.912c-54.228 1.52-59.988 82.665 0 90.729 2.963 2 33.858 0 34.785-29.259-1.559 1.487 7.143 1.708 9.215-1.926 1.712-3.004 4.762-25.427 2-25.704-5.228-.525-13.738-.76-13.983-2.162-3.13-17.886-12.816-35.888-32.017-31.678z" transform="rotate(8.5e-7)"/>
  <path fill="#244356" d="M112.43824085 32.64108276c-1.6543 0-3-1.3457-3-3s1.3457-3 3-3 3 1.3457 3 3-1.3457 3-3 3zm0-4c-.55127 0-1 .44873-1 1s.44873 1 1 1 1-.44873 1-1-.44873-1-1-1z"/>
  <path fill="#244356" d="M112.43824085 44.64108276c-8.271 0-15.00001-6.729-15.00001-15s6.729-15 15.00001-15 15 6.729 15 15-6.729 15-15 15zm0-26c-6.06543 0-11.00001 4.93457-11.00001 11s4.93458 11 11.00001 11 11-4.93457 11-11-4.93457-11-11-11zM170.43824085 29.64108276c-1.6543 0-3-1.3457-3-3s1.3457-3 3-3 3 1.3457 3 3-1.3457 3-3 3zm0-4c-.55127 0-1 .44873-1 1s.44873 1 1 1 1-.44873 1-1-.44873-1-1-1zM161.43824085 96.64108276c-1.6543 0-3-1.3457-3-3s1.3457-3 3-3 3 1.3457 3 3-1.3457 3-3 3zm0-4c-.55127 0-1 .44824-1 1s.44873 1 1 1 1-.44824 1-1-.44873-1-1-1zM163.43824085 16.64108276c-3.85986 0-7-3.14014-7-7s3.14014-7 7-7 7 3.14014 7 7-3.14013 7-7 7zm0-10c-1.6543 0-3 1.3457-3 3s1.3457 3 3 3 3-1.3457 3-3-1.3457-3-3-3zM171.43824085 52.64108276h-92.00001c-1.10449 0-2-.89551-2-2s.89551-2 2-2h92.00001c1.10449 0 2 .89551 2 2s-.8955 2-2 2zM151.43824085 13.64108276h-13c-1.10449 0-2-.89551-2-2s.89551-2 2-2h13c1.10449 0 2 .89551 2 2s-.8955 2-2 2zM163.43824085 28.64108276h-15c-1.10449 0-2-.89551-2-2s.89551-2 2-2h15c1.10449 0 2 .89551 2 2s-.8955 2-2 2zM161.43824085 34.64108276h-16c-1.10449 0-2-.89551-2-2s.89551-2 2-2h16c1.10449 0 2 .89551 2 2s-.8955 2-2 2zM155.43824085 20.64108276h-10c-1.10449 0-2-.89551-2-2s.89551-2 2-2h10c1.10449 0 2 .89551 2 2s-.8955 2-2 2zM148.43824085 98.64108276h-23c-1.10449 0-2-.89551-2-2s.89551-2 2-2h23c1.10449 0 2 .89551 2 2s-.8955 2-2 2zM167.43824085 79.64108276h-15c-1.10449 0-2-.89551-2-2s.89551-2 2-2h15c1.10449 0 2 .89551 2 2s-.8955 2-2 2zM164.43824085 73.64108276h-21c-1.10449 0-2-.89551-2-2s.89551-2 2-2h21c1.10449 0 2 .89551 2 2s-.8955 2-2 2zM159.43824085 86.64108276h-10c-1.10449 0-2-.89551-2-2s.89551-2 2-2h10c1.10449 0 2 .89551 2 2s-.8955 2-2 2zM171.06178085 46.64108276h-10.62354c-1.10449 0-2-.89551-2-2s.89551-2 2-2h10.62354c1.10449 0 2 .89551 2 2s-.89551 2-2 2zM170.05055085 63.64108276h-6.6123c-1.10449 0-2-.89551-2-2s.89551-2 2-2h6.6123c1.10449 0 2 .89551 2 2s-.89551 2-2 2zM171.02418085 58.64108276h-4.58594c-1.10449 0-2-.89551-2-2s.89551-2 2-2h4.58594c1.10449 0 2 .89551 2 2s-.89551 2-2 2zM127.60182085 88.57663276c-1.05078 0-1.93213-.82031-1.99463-1.88281-.06445-1.10254.77686-2.04883 1.87939-2.11328.58203-.03418 1.16064-.08301 1.73438-.14746 1.0918-.1123 2.08643.66992 2.20801 1.76758.12158 1.09863-.66943 2.08691-1.76758 2.20898-.64209.07031-1.28906.125-1.94043.16309-.04004.00292-.07959.0039-.11914.0039zM120.44068085 88.64108276c-.09912 0-.19922-.00684-.30029-.02246-10.09766-1.52051-19.73048-7.53516-25.76759-16.08789-.63721-.90234-.42188-2.15039.48047-2.78711.90283-.63672 2.15039-.4209 2.78711.48047 5.4209 7.67969 14.05518 13.07812 23.09571 14.43945 1.09229.16406 1.84424 1.18359 1.67969 2.27539-.14892.99121-1.00195 1.70215-1.9751 1.70215zM160.43824085 58.64108276h-2c-1.10449 0-2-.89551-2-2s.89551-2 2-2h2c1.10449 0 2 .89551 2 2s-.8955 2-2 2zM155.43824085 63.64108276h-2c-1.10449 0-2-.89551-2-2s.89551-2 2-2h2c1.10449 0 2 .89551 2 2s-.8955 2-2 2zM137.43824085 73.64108276h-2c-1.10449 0-2-.89551-2-2s.89551-2 2-2h2c1.10449 0 2 .89551 2 2s-.8955 2-2 2zM141.43824085 28.64108276h-2c-1.10449 0-2-.89551-2-2s.89551-2 2-2h2c1.10449 0 2 .89551 2 2s-.8955 2-2 2z"/>
  <path fill="#244356" d="M125.43824085 98.64108276c-26.46729 0-48.00001-21.5332-48.00001-48 0-26.46729 21.53271-48 48.00001-48 6.17627 0 12.18994 1.15723 17.87402 3.43896.15137.06104.34131.15869.47363.25439.43457.31445 10.54297 7.84326 14.76367 28.96826 1.36328.57568 4.88965 1.68066 11.09473 1.16846.96582-.07178 1.84277.53906 2.09473 1.46973l.08789.32422c1.08496 4.08105 1.61133 8.07178 1.61133 12.20947 0 5.84033-1.04883 11.52197-3.11768 16.88623-.29784.77149-1.03954 1.28028-1.8662 1.28028-5.58643-.15137-7.354.7002-7.77832.97852-3.69678 18.64746-12.13867 23.19434-13.17773 23.68848-6.81641 3.53905-14.23829 5.333-22.06007 5.333zm0-92c-24.26173 0-44.00001 19.73828-44.00001 44s19.73828 44 44.00001 44c7.18701 0 14.00098-1.64941 20.25146-4.90137.03564-.01855.07129-.03516.10791-.05176.1626-.07812 7.62842-3.82422 10.99072-21.02832.17871-1.60938 1.86133-4.00586 10.27588-4.03516 1.57568-4.51953 2.37402-9.27246 2.37402-14.1499 0-3.35791-.37939-6.6123-1.15723-9.90918-8.42578.37598-12.20264-1.97949-12.62695-2.26562-.44385-.29932-.74951-.76416-.84814-1.29004-3.49805-18.65723-11.89941-26.22754-13.20312-27.30469-5.17089-2.03857-10.59472-3.06396-16.16455-3.06396z"/>
  <g fill="#244356" white-space="pre">
    <path d="M8.76462744 65.46971497l35.54-55.3c1.98-3.4 5-5.1 9.06-5.1 3.507 0 5.92 1.427 7.24 4.28.433.987.65 2.14.65 3.46v54.3h9.71c1.427 0 2.497.44 3.21 1.32.713.873 1.07 1.86 1.07 2.96 0 1.1-.357 2.06-1.07 2.88-.713.82-1.783 1.23-3.21 1.23h-9.71v14.98c0 1.533-.383 2.63-1.15 3.29-1.313 1.207-2.74 1.81-4.28 1.81-2.3 0-4-.987-5.1-2.96-.327-.547-.49-1.26-.49-2.14v-14.98h-36.53c-1.867 0-3.35-.603-4.45-1.81-1.093-1.207-1.64-2.357-1.64-3.45 0-1.973.383-3.563 1.15-4.77zm41.47-50.03l-32.91 51.67h32.91v-51.67zM177.06162744 65.46971497l35.54-55.3c1.98-3.4 5-5.1 9.06-5.1 3.507 0 5.92 1.427 7.24 4.28.433.987.65 2.14.65 3.46v54.3h9.71c1.427 0 2.497.44 3.21 1.32.713.873 1.07 1.86 1.07 2.96 0 1.1-.357 2.06-1.07 2.88-.713.82-1.783 1.23-3.21 1.23h-9.71v14.98c0 1.533-.383 2.63-1.15 3.29-1.313 1.207-2.74 1.81-4.28 1.81-2.3 0-4-.987-5.1-2.96-.327-.547-.49-1.26-.49-2.14v-14.98h-36.53c-1.867 0-3.35-.603-4.45-1.81-1.093-1.207-1.64-2.357-1.64-3.45 0-1.973.383-3.563 1.15-4.77zm41.47-50.03l-32.91 51.67h32.91v-51.67z"/>
  </g>
</svg>
