<?xml version="1.0" encoding="utf-8"?>
<svg viewBox="1.3730592727661133 7.963743686676025 97.60118103027344 126.71003723144531" width="97.60118103027344" height="126.71003723144531" xmlns="http://www.w3.org/2000/svg">
  <path style="stroke: rgb(0, 0, 0); fill: rgb(68, 170, 78);" d="M 50.075 19.884 L 89.07 71.786 L 50.624 123.138 L 10.805 71.236 L 50.075 19.884 Z" transform="matrix(0.9999999999999999, 0, 0, 0.9999999999999999, 0, 0)"/>
  <g id="D" transform="matrix(0.9999999999999999, 0, 0, 0.9999999999999999, 0, 0)">
    <path style="fill:#000000;stroke-width:0px" d="M4.700000000000000 71.299999999999997 C16.024999999999977 86.425000000000011 38.675000000000011 116.675000000000011 50.000000000000000 131.800000000000011 C61.350000000000023 116.675000000000011 84.050000000000011 86.425000000000011 95.399999999999977 71.300000000000011 C84.050000000000011 56.250000000000000 61.350000000000023 26.149999999999977 50.000000000000000 11.099999999999994 C38.675000000000011 26.149999999999977 16.024999999999977 56.250000000000000 4.699999999999989 71.300000000000011 zM50.000000000000000 21.099999999999994 C59.449999999999989 33.649999999999977 78.350000000000023 58.750000000000000 87.800000000000011 71.300000000000011 C78.350000000000023 83.925000000000011 59.449999999999989 109.175000000000011 50.000000000000000 121.800000000000011 C40.550000000000011 109.175000000000011 21.649999999999977 83.925000000000011 12.199999999999989 71.300000000000011 C21.649999999999977 58.750000000000000 40.550000000000011 33.649999999999977 50.000000000000000 21.099999999999994 z" id="path_D_0"/>
  </g>
</svg>