<?xml version="1.0" encoding="utf-8"?>
<svg viewBox="0.666 0.341 100 100" width="100" height="100" xmlns="http://www.w3.org/2000/svg">
  <g transform="matrix(0.9999999999999999, 0, 0, 0.9999999999999999, -97.34203338623047, -214.65930175781247)">
    <g>
      <g>
        <path fill="#244356" d="M135.00784,246c-1.6543,0-3-1.3457-3-3s1.3457-3,3-3s3,1.3457,3,3S136.66214,246,135.00784,246z&#10;&#9;&#9;&#9;&#9; M135.00784,242c-0.55127,0-1,0.44873-1,1s0.44873,1,1,1s1-0.44873,1-1S135.55911,242,135.00784,242z"/>
      </g>
    </g>
  </g>
  <g transform="matrix(0.9999999999999999, 0, 0, 0.9999999999999999, -97.34203338623047, -214.65930175781247)">
    <g>
      <path fill="#244356" d="M135.00784,258c-8.271,0-15.00001-6.729-15.00001-15s6.729-15,15.00001-15s15,6.729,15,15&#10;&#9;&#9;&#9;S143.27884,258,135.00784,258z M135.00784,232c-6.06543,0-11.00001,4.93457-11.00001,11s4.93458,11,11.00001,11s11-4.93457,11-11&#10;&#9;&#9;&#9;S141.07327,232,135.00784,232z"/>
    </g>
  </g>
  <g transform="matrix(0.9999999999999999, 0, 0, 0.9999999999999999, -97.34203338623047, -214.65930175781247)">
    <g>
      <g>
        <path fill="#244356" d="M193.00784,243c-1.6543,0-3-1.3457-3-3s1.3457-3,3-3s3,1.3457,3,3S194.66214,243,193.00784,243z&#10;&#9;&#9;&#9;&#9; M193.00784,239c-0.55127,0-1,0.44873-1,1s0.44873,1,1,1s1-0.44873,1-1S193.55911,239,193.00784,239z"/>
      </g>
    </g>
  </g>
  <g transform="matrix(0.9999999999999999, 0, 0, 0.9999999999999999, -97.34203338623047, -214.65930175781247)">
    <g>
      <g>
        <path fill="#244356" d="M184.00784,310c-1.6543,0-3-1.3457-3-3s1.3457-3,3-3s3,1.3457,3,3S185.66214,310,184.00784,310z&#10;&#9;&#9;&#9;&#9; M184.00784,306c-0.55127,0-1,0.44824-1,1s0.44873,1,1,1s1-0.44824,1-1S184.55911,306,184.00784,306z"/>
      </g>
    </g>
  </g>
  <g transform="matrix(0.9999999999999999, 0, 0, 0.9999999999999999, -97.34203338623047, -214.65930175781247)">
    <g>
      <g>
        <path fill="#244356" d="M186.00784,230c-3.85986,0-7-3.14014-7-7s3.14014-7,7-7s7,3.14014,7,7S189.86771,230,186.00784,230z&#10;&#9;&#9;&#9;&#9; M186.00784,220c-1.6543,0-3,1.3457-3,3s1.3457,3,3,3s3-1.3457,3-3S187.66214,220,186.00784,220z"/>
      </g>
    </g>
  </g>
  <g transform="matrix(0.9999999999999999, 0, 0, 0.9999999999999999, -97.34203338623047, -214.65930175781247)">
    <g>
      <path fill="#244356" d="M194.00784,266h-92.00001c-1.10449,0-2-0.89551-2-2s0.89551-2,2-2h92.00001c1.10449,0,2,0.89551,2,2&#10;&#9;&#9;&#9;S195.11234,266,194.00784,266z"/>
    </g>
  </g>
  <g transform="matrix(0.9999999999999999, 0, 0, 0.9999999999999999, -97.34203338623047, -214.65930175781247)">
    <g>
      <path fill="#244356" d="M174.00784,227h-13c-1.10449,0-2-0.89551-2-2s0.89551-2,2-2h13c1.10449,0,2,0.89551,2,2&#10;&#9;&#9;&#9;S175.11234,227,174.00784,227z"/>
    </g>
  </g>
  <g transform="matrix(0.9999999999999999, 0, 0, 0.9999999999999999, -97.34203338623047, -214.65930175781247)">
    <g>
      <path fill="#244356" d="M186.00784,242h-15c-1.10449,0-2-0.89551-2-2s0.89551-2,2-2h15c1.10449,0,2,0.89551,2,2&#10;&#9;&#9;&#9;S187.11234,242,186.00784,242z"/>
    </g>
  </g>
  <g transform="matrix(0.9999999999999999, 0, 0, 0.9999999999999999, -97.34203338623047, -214.65930175781247)">
    <g>
      <path fill="#244356" d="M184.00784,248h-16c-1.10449,0-2-0.89551-2-2s0.89551-2,2-2h16c1.10449,0,2,0.89551,2,2&#10;&#9;&#9;&#9;S185.11234,248,184.00784,248z"/>
    </g>
  </g>
  <g transform="matrix(0.9999999999999999, 0, 0, 0.9999999999999999, -97.34203338623047, -214.65930175781247)">
    <g>
      <path fill="#244356" d="M178.00784,234h-10c-1.10449,0-2-0.89551-2-2s0.89551-2,2-2h10c1.10449,0,2,0.89551,2,2&#10;&#9;&#9;&#9;S179.11234,234,178.00784,234z"/>
    </g>
  </g>
  <g transform="matrix(0.9999999999999999, 0, 0, 0.9999999999999999, -97.34203338623047, -214.65930175781247)">
    <g>
      <path fill="#244356" d="M171.00784,312h-23c-1.10449,0-2-0.89551-2-2s0.89551-2,2-2h23c1.10449,0,2,0.89551,2,2&#10;&#9;&#9;&#9;S172.11234,312,171.00784,312z"/>
    </g>
  </g>
  <g transform="matrix(0.9999999999999999, 0, 0, 0.9999999999999999, -97.34203338623047, -214.65930175781247)">
    <g>
      <path fill="#244356" d="M190.00784,293h-15c-1.10449,0-2-0.89551-2-2s0.89551-2,2-2h15c1.10449,0,2,0.89551,2,2&#10;&#9;&#9;&#9;S191.11234,293,190.00784,293z"/>
    </g>
  </g>
  <g transform="matrix(0.9999999999999999, 0, 0, 0.9999999999999999, -97.34203338623047, -214.65930175781247)">
    <g>
      <path fill="#244356" d="M187.00784,287h-21c-1.10449,0-2-0.89551-2-2s0.89551-2,2-2h21c1.10449,0,2,0.89551,2,2&#10;&#9;&#9;&#9;S188.11234,287,187.00784,287z"/>
    </g>
  </g>
  <g transform="matrix(0.9999999999999999, 0, 0, 0.9999999999999999, -97.34203338623047, -214.65930175781247)">
    <g>
      <path fill="#244356" d="M182.00784,300h-10c-1.10449,0-2-0.89551-2-2s0.89551-2,2-2h10c1.10449,0,2,0.89551,2,2&#10;&#9;&#9;&#9;S183.11234,300,182.00784,300z"/>
    </g>
  </g>
  <g transform="matrix(0.9999999999999999, 0, 0, 0.9999999999999999, -97.34203338623047, -214.65930175781247)">
    <g>
      <path fill="#244356" d="M193.63138,260h-10.62354c-1.10449,0-2-0.89551-2-2s0.89551-2,2-2h10.62354c1.10449,0,2,0.89551,2,2&#10;&#9;&#9;&#9;S194.73587,260,193.63138,260z"/>
    </g>
  </g>
  <g transform="matrix(0.9999999999999999, 0, 0, 0.9999999999999999, -97.34203338623047, -214.65930175781247)">
    <g>
      <path fill="#244356" d="M192.62015,277h-6.6123c-1.10449,0-2-0.89551-2-2s0.89551-2,2-2h6.6123c1.10449,0,2,0.89551,2,2&#10;&#9;&#9;&#9;S193.72464,277,192.62015,277z"/>
    </g>
  </g>
  <g transform="matrix(0.9999999999999999, 0, 0, 0.9999999999999999, -97.34203338623047, -214.65930175781247)">
    <g>
      <path fill="#244356" d="M193.59378,272h-4.58594c-1.10449,0-2-0.89551-2-2s0.89551-2,2-2h4.58594c1.10449,0,2,0.89551,2,2&#10;&#9;&#9;&#9;S194.69827,272,193.59378,272z"/>
    </g>
  </g>
  <g transform="matrix(0.9999999999999999, 0, 0, 0.9999999999999999, -97.34203338623047, -214.65930175781247)">
    <g>
      <path fill="#244356" d="M150.17142,301.93555c-1.05078,0-1.93213-0.82031-1.99463-1.88281&#10;&#9;&#9;&#9;c-0.06445-1.10254,0.77686-2.04883,1.87939-2.11328c0.58203-0.03418,1.16064-0.08301,1.73438-0.14746&#10;&#9;&#9;&#9;c1.0918-0.1123,2.08643,0.66992,2.20801,1.76758c0.12158,1.09863-0.66943,2.08691-1.76758,2.20898&#10;&#9;&#9;&#9;c-0.64209,0.07031-1.28906,0.125-1.94043,0.16309C150.25052,301.93457,150.21097,301.93555,150.17142,301.93555z"/>
    </g>
  </g>
  <g transform="matrix(0.9999999999999999, 0, 0, 0.9999999999999999, -97.34203338623047, -214.65930175781247)">
    <g>
      <path fill="#244356" d="M143.01028,302c-0.09912,0-0.19922-0.00684-0.30029-0.02246&#10;&#9;&#9;&#9;c-10.09766-1.52051-19.73048-7.53516-25.76759-16.08789c-0.63721-0.90234-0.42188-2.15039,0.48047-2.78711&#10;&#9;&#9;&#9;c0.90283-0.63672,2.15039-0.4209,2.78711,0.48047c5.4209,7.67969,14.05518,13.07812,23.09571,14.43945&#10;&#9;&#9;&#9;c1.09229,0.16406,1.84424,1.18359,1.67969,2.27539C144.83646,301.28906,143.98343,302,143.01028,302z"/>
    </g>
  </g>
  <g transform="matrix(0.9999999999999999, 0, 0, 0.9999999999999999, -97.34203338623047, -214.65930175781247)">
    <g>
      <path fill="#244356" d="M183.00784,272h-2c-1.10449,0-2-0.89551-2-2s0.89551-2,2-2h2c1.10449,0,2,0.89551,2,2&#10;&#9;&#9;&#9;S184.11234,272,183.00784,272z"/>
    </g>
  </g>
  <g transform="matrix(0.9999999999999999, 0, 0, 0.9999999999999999, -97.34203338623047, -214.65930175781247)">
    <g>
      <path fill="#244356" d="M178.00784,277h-2c-1.10449,0-2-0.89551-2-2s0.89551-2,2-2h2c1.10449,0,2,0.89551,2,2&#10;&#9;&#9;&#9;S179.11234,277,178.00784,277z"/>
    </g>
  </g>
  <g transform="matrix(0.9999999999999999, 0, 0, 0.9999999999999999, -97.34203338623047, -214.65930175781247)">
    <g>
      <path fill="#244356" d="M160.00784,287h-2c-1.10449,0-2-0.89551-2-2s0.89551-2,2-2h2c1.10449,0,2,0.89551,2,2&#10;&#9;&#9;&#9;S161.11234,287,160.00784,287z"/>
    </g>
  </g>
  <g transform="matrix(0.9999999999999999, 0, 0, 0.9999999999999999, -97.34203338623047, -214.65930175781247)">
    <g>
      <path fill="#244356" d="M164.00784,242h-2c-1.10449,0-2-0.89551-2-2s0.89551-2,2-2h2c1.10449,0,2,0.89551,2,2&#10;&#9;&#9;&#9;S165.11234,242,164.00784,242z"/>
    </g>
  </g>
  <g transform="matrix(0.9999999999999999, 0, 0, 0.9999999999999999, -97.34203338623047, -214.65930175781247)">
    <g>
      <path fill="#244356" d="M148.00784,312c-26.46729,0-48.00001-21.5332-48.00001-48c0-26.46729,21.53271-48,48.00001-48&#10;&#9;&#9;&#9;c6.17627,0,12.18994,1.15723,17.87402,3.43896c0.15137,0.06104,0.34131,0.15869,0.47363,0.25439&#10;&#9;&#9;&#9;c0.43457,0.31445,10.54297,7.84326,14.76367,28.96826c1.36328,0.57568,4.88965,1.68066,11.09473,1.16846&#10;&#9;&#9;&#9;c0.96582-0.07178,1.84277,0.53906,2.09473,1.46973l0.08789,0.32422c1.08496,4.08105,1.61133,8.07178,1.61133,12.20947&#10;&#9;&#9;&#9;c0,5.84033-1.04883,11.52197-3.11768,16.88623C192.59232,281.49121,191.85062,282,191.02396,282&#10;&#9;&#9;&#9;c-5.58643-0.15137-7.354,0.7002-7.77832,0.97852c-3.69678,18.64746-12.13867,23.19434-13.17773,23.68848&#10;&#9;&#9;&#9;C163.2515,310.20605,155.82962,312,148.00784,312z M148.00784,220c-24.26173,0-44.00001,19.73828-44.00001,44&#10;&#9;&#9;&#9;s19.73828,44,44.00001,44c7.18701,0,14.00098-1.64941,20.25146-4.90137c0.03564-0.01855,0.07129-0.03516,0.10791-0.05176&#10;&#9;&#9;&#9;c0.1626-0.07812,7.62842-3.82422,10.99072-21.02832c0.17871-1.60938,1.86133-4.00586,10.27588-4.03516&#10;&#9;&#9;&#9;c1.57568-4.51953,2.37402-9.27246,2.37402-14.1499c0-3.35791-0.37939-6.6123-1.15723-9.90918&#10;&#9;&#9;&#9;c-8.42578,0.37598-12.20264-1.97949-12.62695-2.26562c-0.44385-0.29932-0.74951-0.76416-0.84814-1.29004&#10;&#9;&#9;&#9;c-3.49805-18.65723-11.89941-26.22754-13.20312-27.30469C159.0015,221.02539,153.57767,220,148.00784,220z"/>
    </g>
  </g>
</svg>