<?xml version="1.0" encoding="utf-8"?>
<svg viewBox="0.02678823471069336 18.612524032592773 100 100" width="100" height="100" xmlns="http://www.w3.org/2000/svg">
  <rect x="8.913" y="27.798" width="82.465" height="81.12" transform="matrix(1, 0, 0, 1, 2.842170943040401e-14, 0)"/>
  <g id="B" transform="matrix(1, 0, 0, 1, 2.842170943040401e-14, 0)">
    <path style="fill:#000000;stroke-width:0px" d="M4.300000000000000 114.299999999999997 C27.149999999999977 114.300000000000011 72.850000000000023 114.300000000000011 95.699999999999989 114.300000000000011 C95.699999999999989 91.425000000000011 95.699999999999989 45.675000000000011 95.699999999999989 22.800000000000011 C72.850000000000023 22.800000000000011 27.149999999999977 22.800000000000011 4.300000000000011 22.800000000000011 C4.300000000000011 45.675000000000011 4.300000000000011 91.425000000000011 4.300000000000011 114.300000000000011 zM10.300000000000001 108.299999999999997 C10.300000000000011 88.425000000000011 10.300000000000011 48.675000000000011 10.300000000000011 28.800000000000011 C30.149999999999977 28.800000000000011 69.850000000000023 28.800000000000011 89.699999999999989 28.800000000000011 C89.699999999999989 48.675000000000011 89.699999999999989 88.425000000000011 89.699999999999989 108.300000000000011 C69.850000000000023 108.300000000000011 30.149999999999977 108.300000000000011 10.300000000000011 108.300000000000011 z" id="path_B_0"/>
  </g>
</svg>